<?xml version="1.0" standalone="no"?><!DOCTYPE svg PUBLIC "-//W3C//DTD SVG 1.1//EN" "http://www.w3.org/Graphics/SVG/1.1/DTD/svg11.dtd"><svg height="251" node-id="1" sillyvg="true" template-height="251" template-width="256" version="1.1" viewBox="0 0 256 251" width="256" xmlns="http://www.w3.org/2000/svg" xmlns:xlink="http://www.w3.org/1999/xlink"><defs node-id="236"></defs><g node-id="459"><path d="M 252.90 115.00 L 252.60 108.60 L 251.90 102.40 L 250.70 96.40 L 249.10 90.60 L 247.10 84.90 L 244.60 79.50 L 241.80 74.30 L 238.60 69.40 L 235.10 64.70 L 231.20 60.40 L 227.10 56.40 L 222.60 52.70 L 217.90 49.30 L 213.00 46.40 L 207.80 43.90 L 202.30 41.70 L 196.80 40.00 L 191.00 38.80 L 185.10 38.00 L 177.10 37.80 L 173.60 32.30 L 169.80 27.10 L 165.50 22.40 L 160.90 18.00 L 155.90 13.90 L 150.60 10.40 L 145.10 7.40 L 139.20 4.80 L 133.10 2.70 L 126.80 1.20 L 120.30 0.30 L 113.50 0.00 L 107.40 0.30 L 101.50 1.00 L 95.70 2.20 L 90.20 3.90 L 84.70 6.10 L 79.60 8.60 L 74.60 11.60 L 69.90 14.90 L 65.40 18.60 L 61.30 22.60 L 57.40 27.00 L 53.90 31.60 L 50.70 36.60 L 47.90 41.70 L 45.50 47.20 L 43.40 52.90 L 41.80 58.70 L 40.60 64.70 L 39.90 70.90 L 39.70 78.90 L 34.20 82.50 L 29.20 86.50 L 24.40 91.00 L 20.10 95.90 L 16.10 101.10 L 12.60 106.70 L 9.60 112.60 L 7.00 118.80 L 5.00 125.30 L 3.50 132.00 L 2.60 138.90 L 2.30 146.10 L 2.50 152.50 L 3.30 158.70 L 4.40 164.70 L 6.00 170.50 L 8.10 176.20 L 10.50 181.70 L 13.40 186.80 L 16.50 191.70 L 20.10 196.40 L 23.90 200.80 L 28.10 204.80 L 32.50 208.50 L 37.30 211.80 L 42.20 214.70 L 47.40 217.30 L 52.80 219.40 L 58.40 221.10 L 64.10 222.40 L 70.10 223.10 L 76.20 223.40 L 83.10 223.00 L 87.20 224.90 L 92.10 227.90 L 108.50 238.90 L 114.70 242.70 L 118.90 245.00 L 127.60 248.70 L 132.00 250.00 L 136.50 250.80 L 141.10 251.10 L 146.80 250.90 L 152.20 250.30 L 157.50 249.20 L 162.70 247.80 L 167.70 245.90 L 177.10 241.20 L 185.80 235.10 L 193.40 227.80 L 196.90 223.70 L 202.90 214.90 L 207.80 205.10 L 211.30 194.60 L 213.40 183.40 L 219.10 179.90 L 224.50 175.90 L 229.50 171.40 L 234.10 166.50 L 238.20 161.20 L 242.00 155.50 L 245.20 149.50 L 247.90 143.10 L 250.00 136.40 L 251.30 131.30 L 252.70 120.60 L 252.90 115.00 Z" fill="#e3f0f7" fill-rule="nonzero" group-id="1" node-id="239" stroke="none" target-height="251.1" target-width="250.59999" target-x="2.3" target-y="0"></path></g><g node-id="460"><g node-id="462"><g node-id="481"><g node-id="490"><path d="M 137.20 117.90 L 137.10 119.10 L 136.00 121.00 L 134.10 122.10 L 132.90 122.20 L 30.10 122.20 L 27.90 121.70 L 26.40 120.10 L 25.80 117.90 L 25.80 45.40 L 26.00 44.20 L 27.10 42.30 L 29.00 41.20 L 30.10 41.10 L 132.90 41.10 L 135.10 41.60 L 136.60 43.20 L 137.20 45.40 L 137.20 117.90 Z" fill="#dae7f5" fill-rule="nonzero" group-id="2,4,23,32" node-id="249" stroke="none" target-height="81.1" target-width="111.399994" target-x="25.8" target-y="41.1"></path><path d="M 132.90 123.80 L 30.10 123.80 L 28.50 123.50 L 26.00 122.00 L 24.50 119.50 L 24.30 117.90 L 24.30 45.40 L 25.10 42.40 L 27.20 40.40 L 28.50 39.80 L 30.10 39.60 L 132.90 39.60 L 134.50 39.80 L 137.00 41.30 L 138.50 43.80 L 138.70 45.40 L 138.70 117.90 L 138.50 119.50 L 137.00 122.00 L 134.50 123.50 L 132.90 123.80 Z M 30.10 42.60 L 29.00 42.80 L 28.10 43.40 L 27.50 44.30 L 27.30 45.40 L 27.30 117.90 L 27.50 119.00 L 28.10 119.90 L 29.00 120.50 L 30.10 120.70 L 132.90 120.70 L 134.00 120.50 L 134.90 119.90 L 135.50 119.00 L 135.70 117.90 L 135.70 45.40 L 135.50 44.30 L 134.90 43.40 L 134.00 42.80 L 132.90 42.60 L 30.10 42.60 Z" fill="#ccccde" fill-rule="nonzero" group-id="2,4,23,32" node-id="251" stroke="none" target-height="84.200005" target-width="114.399994" target-x="24.3" target-y="39.6"></path></g><g node-id="491"><path d="M 137.20 117.90 L 137.10 119.10 L 136.00 121.00 L 134.10 122.10 L 132.90 122.20 L 30.10 122.20 L 27.90 121.70 L 26.40 120.10 L 25.80 117.90 L 25.80 45.40 L 26.00 44.20 L 27.10 42.30 L 29.00 41.20 L 30.10 41.10 L 132.90 41.10 L 135.10 41.60 L 136.60 43.20 L 137.20 45.40 L 137.20 117.90 Z" fill="#ffffff" fill-rule="nonzero" group-id="2,4,23,33" node-id="256" stroke="none" target-height="81.1" target-width="111.399994" target-x="25.8" target-y="41.1"></path><path d="M 132.90 122.80 L 30.10 122.80 L 28.80 122.60 L 26.70 121.30 L 25.50 119.20 L 25.30 117.90 L 25.30 45.40 L 26.00 43.00 L 27.70 41.20 L 28.80 40.70 L 132.90 40.60 L 134.20 40.70 L 136.30 42.00 L 137.50 44.10 L 137.70 45.40 L 137.70 117.90 L 137.50 119.20 L 136.30 121.30 L 134.20 122.60 L 132.90 122.80 Z M 30.10 41.60 L 28.60 41.90 L 27.40 42.70 L 26.60 43.90 L 26.30 45.40 L 26.30 117.90 L 26.60 119.40 L 27.40 120.60 L 28.60 121.40 L 30.10 121.70 L 132.90 121.70 L 134.40 121.40 L 135.60 120.60 L 136.40 119.40 L 136.70 117.90 L 136.70 45.40 L 136.40 43.90 L 135.60 42.70 L 134.40 41.90 L 132.90 41.60 L 30.10 41.60 Z" fill="#ccccde" fill-rule="nonzero" group-id="2,4,23,33" node-id="258" stroke="none" target-height="82.200005" target-width="112.399994" target-x="25.3" target-y="40.6"></path></g></g><g node-id="482"><path d="M 34.90 49.00 L 127.70 49.00 L 127.70 114.30 L 34.90 114.30 Z" fill="#dae7f5" fill-rule="nonzero" group-id="2,4,24" node-id="264" stroke="none" target-height="65.3" target-width="92.799995" target-x="34.9" target-y="49"></path><path d="M 127.70 115.80 L 34.90 115.80 L 33.80 115.30 L 33.40 114.30 L 33.40 49.00 L 33.50 48.50 L 34.30 47.70 L 127.70 47.50 L 128.80 48.00 L 129.20 49.00 L 129.20 114.30 L 128.80 115.30 L 127.70 115.80 Z M 36.40 112.80 L 126.20 112.80 L 126.20 50.50 L 36.40 50.50 L 36.40 112.80 Z" fill="#ccccde" fill-rule="nonzero" group-id="2,4,24" node-id="266" stroke="none" target-height="68.3" target-width="95.799995" target-x="33.4" target-y="47.5"></path></g></g><g node-id="463"><g node-id="483"><path d="M 128.60 214.30 L 128.40 215.70 L 127.10 217.90 L 124.90 219.10 L 123.60 219.30 L 23.20 219.30 L 20.70 218.70 L 18.90 216.90 L 18.20 214.30 L 18.20 150.80 L 18.40 149.40 L 19.70 147.20 L 21.90 146.00 L 23.20 145.80 L 123.60 145.80 L 126.10 146.40 L 127.90 148.30 L 128.60 150.80 L 128.60 214.30 Z" fill="#ffffff" fill-rule="nonzero" group-id="2,5,25" node-id="274" stroke="none" target-height="73.5" target-width="110.40001" target-x="18.2" target-y="145.8"></path><path d="M 123.60 220.80 L 23.20 220.80 L 21.50 220.60 L 20.00 220.00 L 18.60 218.90 L 17.60 217.60 L 17.00 216.10 L 16.70 214.30 L 16.70 150.80 L 17.00 149.00 L 17.60 147.50 L 18.60 146.20 L 20.00 145.20 L 21.50 144.50 L 23.20 144.30 L 123.60 144.30 L 125.30 144.50 L 126.90 145.20 L 128.20 146.20 L 129.20 147.50 L 129.80 149.00 L 130.10 150.80 L 130.10 214.30 L 129.80 216.10 L 129.20 217.60 L 128.20 218.90 L 126.90 220.00 L 125.30 220.60 L 123.60 220.80 Z M 23.20 147.30 L 21.90 147.50 L 20.80 148.30 L 20.00 149.40 L 19.70 150.80 L 19.70 214.30 L 20.00 215.70 L 20.80 216.80 L 21.90 217.60 L 23.20 217.80 L 123.60 217.80 L 125.00 217.60 L 126.10 216.80 L 126.80 215.70 L 127.10 214.30 L 127.10 150.80 L 126.80 149.40 L 126.10 148.30 L 125.00 147.50 L 123.60 147.30 L 23.20 147.30 Z" fill="#ccccde" fill-rule="nonzero" group-id="2,5,25" node-id="276" stroke="none" target-height="76.5" target-width="113.40001" target-x="16.7" target-y="144.3"></path></g><g node-id="484"><path d="M 28.70 154.70 L 118.10 154.70 L 118.10 208.60 L 28.70 208.60 Z" fill="#d3e3f5" fill-rule="nonzero" group-id="2,5,26" node-id="281" stroke="none" target-height="53.90001" target-width="89.399994" target-x="28.7" target-y="154.7"></path><path d="M 118.10 210.10 L 28.20 210.00 L 27.40 209.20 L 27.20 208.60 L 27.20 154.70 L 27.40 154.20 L 28.20 153.40 L 118.70 153.40 L 119.50 154.20 L 119.60 154.70 L 119.60 208.60 L 119.10 209.70 L 118.10 210.10 Z M 30.20 207.10 L 116.60 207.10 L 116.60 156.20 L 30.20 156.20 L 30.20 207.10 Z" fill="#ccccde" fill-rule="nonzero" group-id="2,5,26" node-id="283" stroke="none" target-height="56.700012" target-width="92.399994" target-x="27.2" target-y="153.4"></path></g><g node-id="485"><path d="M 135.20 219.30 L 135.20 225.50 L 134.90 227.10 L 134.30 228.50 L 133.20 229.80 L 131.90 230.80 L 130.40 231.40 L 128.60 231.60 L 19.60 231.60 L 17.80 231.40 L 16.20 230.80 L 14.90 229.80 L 13.90 228.50 L 13.20 227.10 L 13.00 225.50 L 13.00 219.30" fill="#ffffff" fill-rule="nonzero" group-id="2,5,27" node-id="288" stroke="none" target-height="12.300003" target-width="122.2" target-x="13" target-y="219.3"></path><path d="M 128.60 233.10 L 19.60 233.10 L 17.40 232.80 L 15.50 232.10 L 13.80 230.90 L 12.60 229.30 L 11.80 227.50 L 11.50 225.50 L 11.50 219.30 L 11.90 218.30 L 13.00 217.80 L 135.20 217.80 L 136.20 218.30 L 136.70 219.30 L 136.70 225.50 L 136.40 227.50 L 135.50 229.30 L 134.30 230.90 L 132.70 232.10 L 130.70 232.80 L 128.60 233.10 Z M 14.50 220.80 L 14.50 225.50 L 15.20 227.80 L 17.00 229.50 L 19.60 230.10 L 128.60 230.10 L 131.10 229.50 L 133.00 227.80 L 133.70 225.50 L 133.70 220.80 L 14.50 220.80 Z" fill="#ccccde" fill-rule="nonzero" group-id="2,5,27" node-id="290" stroke="none" target-height="15.300003" target-width="125.2" target-x="11.5" target-y="217.8"></path></g></g><g node-id="464"><g node-id="486"><path d="M 202.30 233.40 L 196.20 204.90 L 170.40 204.90 L 164.70 233.80" fill="#f0f0ff" fill-rule="nonzero" group-id="2,6,28" node-id="298" stroke="none" target-height="28.90001" target-width="37.600006" target-x="164.7" target-y="204.9"></path><path d="M 164.70 235.30 L 163.50 234.70 L 163.30 233.50 L 168.90 204.60 L 169.40 203.70 L 170.40 203.40 L 196.20 203.40 L 197.10 203.70 L 197.70 204.60 L 203.70 233.70 L 203.10 234.60 L 202.60 234.90 L 201.40 234.70 L 200.80 233.70 L 195.00 206.40 L 171.60 206.40 L 166.20 234.10 L 165.70 235.00 L 164.70 235.30 Z" fill="#ccccde" fill-rule="nonzero" group-id="2,6,28" node-id="300" stroke="none" target-height="31.90001" target-width="40.399994" target-x="163.3" target-y="203.4"></path></g><path d="M 209.30 235.30 L 157.70 235.30 L 156.60 234.90 L 156.20 233.80 L 156.60 232.80 L 157.70 232.30 L 209.30 232.30 L 210.40 232.80 L 210.80 233.80 L 210.40 234.90 L 209.30 235.30 Z" fill="#ccccde" fill-rule="nonzero" group-id="2,6" node-id="303" stroke="none" target-height="3" target-width="54.600006" target-x="156.2" target-y="232.3"></path><g node-id="487"><path d="M 252.40 200.40 L 252.20 201.80 L 250.80 204.20 L 248.40 205.50 L 247.00 205.70 L 120.00 205.70 L 118.50 205.50 L 116.20 204.20 L 114.80 201.80 L 114.60 200.40 L 114.60 108.10 L 114.80 106.60 L 116.20 104.30 L 118.50 102.90 L 120.00 102.70 L 247.00 102.70 L 249.70 103.40 L 251.60 105.40 L 252.40 108.10 L 252.40 200.40 Z" fill="#ffffff" fill-rule="nonzero" group-id="2,6,29" node-id="307" stroke="none" target-height="103" target-width="137.79999" target-x="114.6" target-y="102.7"></path><path d="M 247.00 206.20 L 120.00 206.20 L 118.40 206.00 L 115.80 204.50 L 114.30 201.90 L 114.10 200.40 L 114.10 108.10 L 114.30 106.50 L 115.80 103.90 L 118.40 102.40 L 120.00 102.20 L 247.00 102.20 L 248.60 102.40 L 251.10 103.90 L 252.60 106.50 L 252.90 108.10 L 252.90 200.40 L 252.60 201.90 L 251.10 204.50 L 248.60 206.00 L 247.00 206.20 Z M 120.00 103.20 L 118.70 103.40 L 116.50 104.60 L 115.30 106.80 L 115.10 108.10 L 115.10 200.40 L 115.30 201.70 L 116.50 203.80 L 118.70 205.10 L 120.00 205.20 L 247.00 205.20 L 248.30 205.10 L 250.40 203.80 L 251.70 201.70 L 251.90 200.40 L 251.90 108.10 L 251.20 105.60 L 249.40 103.90 L 247.00 103.20 L 120.00 103.20 Z" fill="#ccccde" fill-rule="nonzero" group-id="2,6,29" node-id="309" stroke="none" target-height="104" target-width="138.79999" target-x="114.1" target-y="102.2"></path></g><g node-id="488"><path d="M 126.40 115.30 L 240.50 115.30 L 240.50 184.60 L 126.40 184.60 Z" fill="#d3e3f5" fill-rule="nonzero" group-id="2,6,30" node-id="314" stroke="none" target-height="69.3" target-width="114.1" target-x="126.4" target-y="115.3"></path><path d="M 240.50 186.10 L 125.80 185.90 L 125.10 185.10 L 124.90 184.60 L 124.90 115.30 L 125.10 114.70 L 125.80 113.90 L 241.10 113.90 L 241.90 114.70 L 242.00 115.30 L 242.00 184.60 L 241.60 185.60 L 240.50 186.10 Z M 127.90 183.10 L 239.00 183.10 L 239.00 116.80 L 127.90 116.80 L 127.90 183.10 Z" fill="#ccccde" fill-rule="nonzero" group-id="2,6,30" node-id="316" stroke="none" target-height="72.200005" target-width="117.1" target-x="124.9" target-y="113.9"></path></g><path d="M 247.00 207.20 L 120.00 207.20 L 118.20 207.00 L 116.50 206.30 L 115.10 205.20 L 114.00 203.80 L 113.40 202.20 L 113.10 200.40 L 113.10 108.10 L 113.40 106.30 L 114.00 104.60 L 115.10 103.20 L 116.50 102.20 L 118.20 101.50 L 120.00 101.20 L 247.00 101.20 L 248.80 101.50 L 250.50 102.20 L 251.90 103.20 L 252.90 104.60 L 253.60 106.30 L 253.90 108.10 L 253.90 200.40 L 253.60 202.20 L 252.90 203.80 L 251.90 205.20 L 250.50 206.30 L 248.80 207.00 L 247.00 207.20 Z M 120.00 104.20 L 118.50 104.50 L 117.20 105.40 L 116.40 106.60 L 116.10 108.10 L 116.10 200.40 L 116.40 201.90 L 117.20 203.10 L 118.50 203.90 L 120.00 204.20 L 247.00 204.20 L 248.50 203.90 L 249.70 203.10 L 250.60 201.90 L 250.90 200.40 L 250.90 108.10 L 250.60 106.60 L 249.70 105.40 L 248.50 104.50 L 247.00 104.20 L 120.00 104.20 Z" fill="#ccccde" fill-rule="nonzero" group-id="2,6" node-id="319" stroke="none" target-height="106" target-width="140.79999" target-x="113.1" target-y="101.2"></path></g><g node-id="465"><g node-id="489"><g node-id="492"><path d="M 229.20 126.80 L 229.00 128.10 L 227.80 130.30 L 225.60 131.60 L 224.20 131.80 L 176.20 131.80 L 174.90 131.60 L 172.70 130.30 L 171.40 128.10 L 171.20 126.80 L 171.20 42.80 L 171.40 41.40 L 172.70 39.20 L 174.90 37.90 L 176.20 37.80 L 224.20 37.80 L 226.70 38.40 L 228.50 40.20 L 229.20 42.80 L 229.20 126.80 Z" fill="#dae7f5" fill-rule="nonzero" group-id="2,7,31,34" node-id="328" stroke="none" target-height="94" target-width="58" target-x="171.2" target-y="37.8"></path><path d="M 224.20 133.30 L 176.20 133.30 L 174.50 133.00 L 173.00 132.40 L 171.60 131.30 L 170.60 130.00 L 170.00 128.50 L 169.70 126.80 L 169.70 42.80 L 170.00 41.00 L 170.60 39.50 L 171.60 38.20 L 173.00 37.10 L 174.50 36.50 L 176.20 36.30 L 224.20 36.30 L 226.00 36.50 L 227.50 37.10 L 228.80 38.20 L 229.80 39.50 L 230.50 41.00 L 230.70 42.80 L 230.70 126.80 L 230.50 128.50 L 229.80 130.00 L 228.80 131.30 L 227.50 132.40 L 226.00 133.00 L 224.20 133.30 Z M 176.20 39.30 L 174.90 39.50 L 173.80 40.30 L 173.00 41.40 L 172.70 42.80 L 172.70 126.80 L 173.00 128.10 L 173.80 129.20 L 174.90 130.00 L 176.20 130.30 L 224.20 130.30 L 225.60 130.00 L 226.70 129.20 L 227.40 128.10 L 227.70 126.80 L 227.70 42.80 L 227.40 41.40 L 226.70 40.30 L 225.60 39.50 L 224.20 39.30 L 176.20 39.30 Z" fill="#ccccde" fill-rule="nonzero" group-id="2,7,31,34" node-id="330" stroke="none" target-height="97" target-width="61" target-x="169.7" target-y="36.3"></path></g><g node-id="493"><path d="M 229.20 126.80 L 229.00 128.10 L 227.80 130.30 L 225.60 131.60 L 224.20 131.80 L 176.20 131.80 L 174.90 131.60 L 172.70 130.30 L 171.40 128.10 L 171.20 126.80 L 171.20 42.80 L 171.40 41.40 L 172.70 39.20 L 174.90 37.90 L 176.20 37.80 L 224.20 37.80 L 226.70 38.40 L 228.50 40.20 L 229.20 42.80 L 229.20 126.80 Z" fill="#dae7f5" fill-rule="nonzero" group-id="2,7,31,35" node-id="335" stroke="none" target-height="94" target-width="58" target-x="171.2" target-y="37.8"></path><path d="M 224.20 133.30 L 176.20 133.30 L 174.50 133.00 L 173.00 132.40 L 171.60 131.30 L 170.60 130.00 L 170.00 128.50 L 169.70 126.80 L 169.70 42.80 L 170.00 41.00 L 170.60 39.50 L 171.60 38.20 L 173.00 37.10 L 174.50 36.50 L 176.20 36.30 L 224.20 36.30 L 226.00 36.50 L 227.50 37.10 L 228.80 38.20 L 229.80 39.50 L 230.50 41.00 L 230.70 42.80 L 230.70 126.80 L 230.50 128.50 L 229.80 130.00 L 228.80 131.30 L 227.50 132.40 L 226.00 133.00 L 224.20 133.30 Z M 176.20 39.30 L 174.90 39.50 L 173.80 40.30 L 173.00 41.40 L 172.70 42.80 L 172.70 126.80 L 173.00 128.10 L 173.80 129.20 L 174.90 130.00 L 176.20 130.30 L 224.20 130.30 L 225.60 130.00 L 226.70 129.20 L 227.40 128.10 L 227.70 126.80 L 227.70 42.80 L 227.40 41.40 L 226.70 40.30 L 225.60 39.50 L 224.20 39.30 L 176.20 39.30 Z" fill="#ccccde" fill-rule="nonzero" group-id="2,7,31,35" node-id="337" stroke="none" target-height="97" target-width="61" target-x="169.7" target-y="36.3"></path></g></g><path d="M 206.70 45.80 L 193.10 45.60 L 192.30 44.80 L 192.20 44.30 L 192.30 43.70 L 193.10 42.90 L 207.30 42.90 L 208.10 43.70 L 208.10 44.80 L 207.30 45.60 L 206.70 45.80 Z" fill="#ccccde" fill-rule="nonzero" group-id="2,7" node-id="341" stroke="none" target-height="2.8999977" target-width="15.900009" target-x="192.2" target-y="42.9"></path></g></g><g node-id="461"><g node-id="466"><path d="M 153.00 51.50 L 209.20 51.50 L 212.70 52.10 L 214.70 53.00 L 218.60 55.80 L 221.60 59.70 L 222.80 62.00 L 225.00 68.70 L 225.80 72.40 L 226.40 82.50 L 149.50 82.50" fill="#e8d1b7" fill-rule="nonzero" group-id="3,8" node-id="348" stroke="none" target-height="31" target-width="76.899994" target-x="149.5" target-y="51.5"></path><path d="M 226.40 84.00 L 148.90 83.90 L 148.10 83.10 L 148.10 82.00 L 148.90 81.20 L 149.50 81.00 L 224.90 81.00 L 224.60 75.20 L 223.80 70.20 L 222.70 66.00 L 221.60 62.90 L 220.20 60.30 L 217.00 56.40 L 214.80 54.70 L 212.80 53.80 L 209.50 53.00 L 153.00 53.00 L 152.50 52.90 L 151.70 52.10 L 151.70 50.90 L 152.50 50.10 L 209.90 50.00 L 214.00 51.00 L 216.30 52.20 L 218.90 54.10 L 221.10 56.30 L 223.00 59.00 L 224.60 62.30 L 226.00 66.20 L 227.00 70.80 L 227.70 76.20 L 227.90 82.50 L 227.50 83.60 L 226.40 84.00 Z" fill="#6e6e96" fill-rule="nonzero" group-id="3,8" node-id="350" stroke="none" target-height="34" target-width="79.79999" target-x="148.1" target-y="50"></path></g><g node-id="467"><path d="M 224.40 63.80 L 188.90 63.80 L 191.30 60.00 L 195.60 55.40 L 198.40 53.40 L 200.50 52.40 L 202.90 51.80 L 205.40 51.50 L 208.00 51.70 L 210.90 52.60 L 214.10 54.20 L 217.10 56.30 L 220.50 59.40 L 224.40 63.80 Z" fill="#6e6e96" fill-opacity="0.15" fill-rule="nonzero" group-id="3,9" node-id="355" stroke="none" target-height="12.299999" target-width="35.5" target-x="188.9" target-y="51.5"></path></g><g node-id="468"><path d="M 106.40 205.40 L 50.10 205.40 L 46.30 204.70 L 44.00 203.90 L 39.70 201.10 L 36.40 197.20 L 35.00 194.80 L 32.60 188.20 L 31.80 184.50 L 31.10 174.30 L 109.90 174.30" fill="#e8d1b7" fill-rule="nonzero" group-id="3,10" node-id="360" stroke="none" target-height="31.09999" target-width="78.8" target-x="31.1" target-y="174.3"></path><path d="M 50.70 206.90 L 45.80 206.10 L 41.10 204.00 L 38.70 202.20 L 36.50 199.90 L 34.50 197.10 L 32.90 193.80 L 31.50 190.00 L 30.50 185.60 L 29.80 180.40 L 29.60 174.30 L 30.00 173.30 L 31.10 172.80 L 109.90 172.80 L 110.50 172.90 L 111.30 173.70 L 111.30 174.90 L 110.50 175.70 L 109.90 175.80 L 32.60 175.80 L 33.00 181.90 L 33.80 187.00 L 35.10 191.20 L 36.60 194.70 L 38.50 197.60 L 40.70 199.90 L 43.30 201.90 L 45.70 203.00 L 49.70 203.90 L 106.40 203.90 L 107.00 204.00 L 107.80 204.80 L 107.80 205.90 L 107.00 206.70 L 106.40 206.90 L 50.70 206.90 Z" fill="#6e6e96" fill-rule="nonzero" group-id="3,10" node-id="362" stroke="none" target-height="34.09999" target-width="81.700005" target-x="29.6" target-y="172.8"></path></g><path d="M 189.70 82.50 L 189.70 182.10 L 189.50 185.30 L 188.80 188.30 L 187.80 191.10 L 186.50 193.80 L 182.80 198.50 L 178.10 202.20 L 175.40 203.50 L 172.60 204.50 L 169.60 205.10 L 166.40 205.40 L 51.60 205.40 L 56.00 204.80 L 59.00 203.90 L 62.00 202.50 L 65.20 200.30 L 67.10 198.50 L 68.80 196.30 L 70.40 193.40 L 71.50 190.40 L 72.20 186.70 L 72.50 182.10 L 72.50 82.50 L 72.80 77.00 L 73.50 72.40 L 74.50 68.60 L 75.90 65.00 L 77.50 62.00 L 81.40 57.50 L 85.60 54.60 L 88.90 53.10 L 91.90 52.30 L 96.70 51.70 L 210.40 51.80 L 207.20 52.10 L 204.40 52.80 L 202.00 54.00 L 197.90 57.50 L 196.20 59.70 L 194.20 63.30 L 191.40 71.00 L 190.70 74.60 L 189.70 82.50 Z" fill="#fff6c9" fill-rule="nonzero" group-id="3" node-id="365" stroke="none" target-height="153.7" target-width="158.79999" target-x="51.6" target-y="51.7"></path><g node-id="469"><path d="M 72.50 189.30 L 72.50 182.10 L 72.20 186.70 L 71.50 190.40 L 70.40 193.40 L 68.80 196.30 L 67.10 198.50 L 65.20 200.30 L 62.00 202.50 L 59.00 203.90 L 56.00 204.80 L 51.60 205.40 L 166.40 205.40 L 169.60 205.10 L 172.60 204.50 L 175.40 203.50 L 180.60 200.50 L 184.80 196.30 L 187.80 191.10 L 188.80 188.30 L 189.50 185.30 L 189.70 182.10 L 189.70 189.30 L 72.50 189.30 Z" fill="#6e6e96" fill-opacity="0.1" fill-rule="nonzero" group-id="3,11" node-id="369" stroke="none" target-height="23.299988" target-width="138.1" target-x="51.6" target-y="182.1"></path></g><g node-id="470"><path d="M 125.00 87.60 L 123.90 87.10 L 114.40 77.60 L 114.00 76.50 L 114.40 75.50 L 123.90 66.00 L 125.00 65.50 L 126.10 66.00 L 126.40 66.50 L 126.40 67.60 L 126.10 68.10 L 117.60 76.50 L 126.10 85.00 L 126.40 85.50 L 126.40 86.60 L 126.10 87.10 L 125.00 87.60 Z" fill="#6e6e96" fill-opacity="0.44" fill-rule="nonzero" group-id="3,12" node-id="374" stroke="none" target-height="22.099998" target-width="12.400002" target-x="114" target-y="65.5"></path><path d="M 142.90 87.60 L 141.90 87.10 L 141.50 86.60 L 141.50 85.50 L 141.90 85.00 L 150.30 76.50 L 141.90 68.10 L 141.50 67.60 L 141.50 66.50 L 141.90 66.00 L 142.90 65.50 L 144.00 66.00 L 153.50 75.50 L 153.90 76.50 L 153.50 77.60 L 144.00 87.10 L 142.90 87.60 Z" fill="#6e6e96" fill-opacity="0.44" fill-rule="nonzero" group-id="3,12" node-id="376" stroke="none" target-height="22.099998" target-width="12.399994" target-x="141.5" target-y="65.5"></path><path d="M 131.80 90.00 L 130.50 89.30 L 130.30 88.20 L 135.60 63.60 L 135.90 63.10 L 136.80 62.40 L 137.90 62.70 L 138.60 63.60 L 138.50 64.20 L 133.20 88.80 L 132.70 89.70 L 131.80 90.00 Z" fill="#6e6e96" fill-opacity="0.44" fill-rule="nonzero" group-id="3,12" node-id="378" stroke="none" target-height="27.599998" target-width="8.300003" target-x="130.3" target-y="62.4"></path></g><path d="M 92.70 103.30 L 84.00 103.20 L 83.20 102.40 L 83.10 101.80 L 83.20 101.20 L 84.00 100.40 L 93.30 100.40 L 94.10 101.20 L 94.10 102.40 L 93.30 103.20 L 92.70 103.30 Z" fill="#ffc4fd" fill-rule="nonzero" group-id="3" node-id="381" stroke="none" target-height="2.9000015" target-width="11" target-x="83.1" target-y="100.4"></path><path d="M 143.60 103.30 L 106.40 103.30 L 105.30 102.90 L 104.90 101.80 L 105.30 100.70 L 106.40 100.30 L 143.60 100.30 L 144.70 100.70 L 145.10 101.80 L 144.70 102.90 L 143.60 103.30 Z" fill="#f0d2b4" fill-rule="nonzero" group-id="3" node-id="383" stroke="none" target-height="3" target-width="40.200005" target-x="104.9" target-y="100.3"></path><g node-id="471"><path d="M 168.90 103.30 L 152.80 103.30 L 152.20 103.20 L 151.40 102.40 L 151.40 101.20 L 152.20 100.40 L 168.90 100.30 L 170.00 100.70 L 170.40 101.80 L 170.00 102.90 L 168.90 103.30 Z" fill="#6e6e96" fill-opacity="0.3" fill-rule="nonzero" group-id="3,13" node-id="387" stroke="none" target-height="3" target-width="19" target-x="151.4" target-y="100.3"></path></g><path d="M 109.20 114.20 L 94.50 114.20 L 93.90 114.10 L 93.10 113.30 L 93.10 112.10 L 93.90 111.30 L 109.20 111.20 L 110.30 111.60 L 110.70 112.70 L 110.30 113.80 L 109.20 114.20 Z" fill="#ffc4fd" fill-rule="nonzero" group-id="3" node-id="390" stroke="none" target-height="3" target-width="17.599998" target-x="93.1" target-y="111.2"></path><path d="M 117.10 123.10 L 100.20 123.10 L 99.70 123.00 L 98.90 122.20 L 98.90 121.10 L 99.70 120.30 L 117.10 120.10 L 118.20 120.60 L 118.60 121.60 L 118.20 122.70 L 117.10 123.10 Z" fill="#ffc4fd" fill-rule="nonzero" group-id="3" node-id="392" stroke="none" target-height="3" target-width="19.699997" target-x="98.9" target-y="120.1"></path><g node-id="472"><path d="M 153.10 123.10 L 127.50 123.10 L 126.90 123.00 L 126.10 122.20 L 126.10 121.10 L 126.90 120.30 L 153.10 120.10 L 154.20 120.60 L 154.60 121.60 L 154.20 122.70 L 153.10 123.10 Z" fill="#6e6e96" fill-opacity="0.3" fill-rule="nonzero" group-id="3,14" node-id="396" stroke="none" target-height="3" target-width="28.500008" target-x="126.1" target-y="120.1"></path></g><path d="M 151.30 132.50 L 135.90 132.50 L 134.80 132.00 L 134.40 131.00 L 134.80 129.90 L 135.90 129.50 L 151.30 129.50 L 152.40 129.90 L 152.80 131.00 L 152.40 132.00 L 151.30 132.50 Z" fill="#90abc4" fill-rule="nonzero" group-id="3" node-id="399" stroke="none" target-height="3" target-width="18.40001" target-x="134.4" target-y="129.5"></path><path d="M 125.40 132.50 L 113.90 132.30 L 113.10 131.50 L 113.00 131.00 L 113.10 130.40 L 113.90 129.60 L 125.90 129.60 L 126.70 130.40 L 126.70 131.50 L 125.90 132.30 L 125.40 132.50 Z" fill="#f0d2b4" fill-rule="nonzero" group-id="3" node-id="401" stroke="none" target-height="2.899994" target-width="13.699997" target-x="113" target-y="129.6"></path><g node-id="473"><path d="M 174.20 132.50 L 158.40 132.50 L 157.80 132.30 L 157.00 131.50 L 157.00 130.40 L 157.80 129.60 L 174.20 129.50 L 175.20 129.90 L 175.70 131.00 L 175.20 132.00 L 174.20 132.50 Z" fill="#6e6e96" fill-opacity="0.3" fill-rule="nonzero" group-id="3,15" node-id="405" stroke="none" target-height="3" target-width="18.699997" target-x="157" target-y="129.5"></path></g><path d="M 142.60 140.90 L 135.30 140.80 L 134.50 140.00 L 134.40 139.40 L 134.50 138.80 L 135.30 138.00 L 143.20 138.00 L 143.90 138.80 L 143.90 140.00 L 143.20 140.80 L 142.60 140.90 Z" fill="#90abc4" fill-rule="nonzero" group-id="3" node-id="408" stroke="none" target-height="2.899994" target-width="9.5" target-x="134.4" target-y="138"></path><path d="M 125.40 140.90 L 113.90 140.80 L 113.10 140.00 L 113.00 139.40 L 113.10 138.80 L 113.90 138.00 L 125.90 138.00 L 126.70 138.80 L 126.70 140.00 L 125.90 140.80 L 125.40 140.90 Z" fill="#f0d2b4" fill-rule="nonzero" group-id="3" node-id="410" stroke="none" target-height="2.899994" target-width="13.699997" target-x="113" target-y="138"></path><g node-id="474"><path d="M 159.10 140.90 L 148.60 140.80 L 147.90 140.00 L 147.70 139.40 L 147.90 138.80 L 148.60 138.00 L 159.70 138.00 L 160.50 138.80 L 160.50 140.00 L 159.70 140.80 L 159.10 140.90 Z" fill="#6e6e96" fill-opacity="0.3" fill-rule="nonzero" group-id="3,16" node-id="414" stroke="none" target-height="2.899994" target-width="12.800003" target-x="147.7" target-y="138"></path></g><path d="M 151.00 151.40 L 135.90 151.40 L 135.30 151.30 L 134.50 150.50 L 134.50 149.30 L 135.30 148.50 L 151.00 148.40 L 152.10 148.90 L 152.50 149.90 L 152.10 151.00 L 151.00 151.40 Z" fill="#90abc4" fill-rule="nonzero" group-id="3" node-id="417" stroke="none" target-height="3" target-width="18" target-x="134.5" target-y="148.4"></path><path d="M 126.80 151.40 L 113.90 151.30 L 113.10 150.50 L 113.00 149.90 L 113.10 149.30 L 113.90 148.50 L 127.30 148.50 L 128.10 149.30 L 128.10 150.50 L 127.30 151.30 L 126.80 151.40 Z" fill="#f0d2b4" fill-rule="nonzero" group-id="3" node-id="419" stroke="none" target-height="2.899994" target-width="15.100006" target-x="113" target-y="148.5"></path><g node-id="475"><path d="M 164.00 151.40 L 157.10 151.30 L 156.30 150.50 L 156.20 149.90 L 156.30 149.30 L 157.10 148.50 L 164.60 148.50 L 165.40 149.30 L 165.40 150.50 L 164.60 151.30 L 164.00 151.40 Z" fill="#6e6e96" fill-opacity="0.3" fill-rule="nonzero" group-id="3,17" node-id="423" stroke="none" target-height="2.899994" target-width="9.199997" target-x="156.2" target-y="148.5"></path></g><g node-id="476"><path d="M 108.50 161.60 L 99.70 161.50 L 98.90 160.70 L 98.70 160.10 L 98.90 159.50 L 99.70 158.70 L 109.10 158.70 L 109.90 159.50 L 109.90 160.70 L 109.10 161.50 L 108.50 161.60 Z" fill="#6e6e96" fill-opacity="0.3" fill-rule="nonzero" group-id="3,18" node-id="428" stroke="none" target-height="2.9000092" target-width="11.200005" target-x="98.7" target-y="158.7"></path></g><g node-id="477"><path d="M 99.70 170.40 L 93.90 170.30 L 93.10 169.50 L 93.00 168.90 L 93.10 168.30 L 93.90 167.50 L 100.30 167.50 L 101.10 168.30 L 101.10 169.50 L 100.30 170.30 L 99.70 170.40 Z" fill="#6e6e96" fill-opacity="0.3" fill-rule="nonzero" group-id="3,19" node-id="433" stroke="none" target-height="2.899994" target-width="8.099998" target-x="93" target-y="167.5"></path></g><g node-id="478"><path d="M 90.60 179.20 L 84.00 179.00 L 83.20 178.30 L 83.10 177.70 L 83.20 177.10 L 84.00 176.30 L 91.20 176.30 L 92.00 177.10 L 92.00 178.30 L 91.20 179.00 L 90.60 179.20 Z" fill="#6e6e96" fill-opacity="0.3" fill-rule="nonzero" group-id="3,20" node-id="438" stroke="none" target-height="2.899994" target-width="8.900002" target-x="83.1" target-y="176.3"></path></g><path d="M 131.90 132.50 L 129.60 132.50 L 128.50 132.00 L 128.10 131.00 L 128.20 130.40 L 129.00 129.60 L 131.90 129.50 L 133.00 129.90 L 133.40 131.00 L 133.30 131.50 L 132.50 132.30 L 131.90 132.50 Z" fill="#f0d2b4" fill-rule="nonzero" group-id="3" node-id="441" stroke="none" target-height="3" target-width="5.299988" target-x="128.1" target-y="129.5"></path><path d="M 131.60 140.90 L 129.70 140.90 L 128.60 140.40 L 128.20 139.40 L 128.30 138.80 L 129.10 138.00 L 131.60 137.90 L 132.60 138.30 L 133.10 139.40 L 132.90 140.00 L 132.10 140.80 L 131.60 140.90 Z" fill="#f0d2b4" fill-rule="nonzero" group-id="3" node-id="443" stroke="none" target-height="3" target-width="4.900009" target-x="128.2" target-y="137.9"></path><path d="M 131.90 151.40 L 130.00 151.40 L 129.00 151.00 L 128.50 149.90 L 128.70 149.30 L 129.50 148.50 L 131.90 148.40 L 133.00 148.90 L 133.40 149.90 L 133.30 150.50 L 132.50 151.30 L 131.90 151.40 Z" fill="#f0d2b4" fill-rule="nonzero" group-id="3" node-id="445" stroke="none" target-height="3" target-width="4.899994" target-x="128.5" target-y="148.4"></path><g node-id="479"><path d="M 35.10 193.10 L 70.50 193.10 L 68.10 196.80 L 63.90 201.40 L 61.00 203.40 L 58.90 204.50 L 56.60 205.10 L 54.00 205.40 L 51.40 205.10 L 48.60 204.30 L 45.30 202.70 L 42.30 200.60 L 38.90 197.50 L 35.10 193.10 Z" fill="#6e6e96" fill-opacity="0.15" fill-rule="nonzero" group-id="3,21" node-id="449" stroke="none" target-height="12.299988" target-width="35.4" target-x="35.1" target-y="193.1"></path></g><g node-id="480"><path d="M 78.40 61.90 L 195.70 61.90 L 197.30 59.20 L 199.30 56.80 L 201.70 54.70 L 204.40 53.10 L 206.40 52.40 L 211.10 51.80 L 97.10 51.70 L 91.70 52.50 L 88.40 53.60 L 84.90 55.40 L 82.60 57.00 L 80.50 59.20 L 78.40 61.90 Z" fill="#ffffff" fill-opacity="0.51" fill-rule="nonzero" group-id="3,22" node-id="454" stroke="none" target-height="10.200001" target-width="132.70001" target-x="78.4" target-y="51.7"></path></g><path d="M 166.40 206.90 L 51.60 206.90 L 51.00 206.70 L 50.20 205.90 L 50.20 204.80 L 51.00 204.00 L 56.00 203.20 L 58.80 202.40 L 61.50 201.10 L 64.40 199.00 L 67.70 195.20 L 69.10 192.60 L 70.10 189.80 L 70.80 186.30 L 71.00 182.10 L 71.00 82.50 L 71.30 76.80 L 72.10 71.70 L 73.30 67.40 L 74.90 63.60 L 76.90 60.30 L 79.20 57.50 L 82.00 55.10 L 85.00 53.20 L 88.00 51.90 L 93.40 50.50 L 97.20 50.20 L 210.40 50.20 L 211.00 50.40 L 211.80 51.20 L 211.80 52.30 L 211.00 53.10 L 207.50 53.50 L 204.90 54.30 L 202.70 55.40 L 198.90 58.70 L 197.40 60.80 L 195.50 64.20 L 194.00 67.80 L 192.10 74.80 L 191.20 82.60 L 191.20 182.10 L 190.90 185.50 L 190.30 188.70 L 189.20 191.70 L 187.80 194.60 L 186.00 197.20 L 183.90 199.60 L 181.50 201.70 L 178.90 203.50 L 176.00 204.90 L 173.00 206.00 L 169.80 206.60 L 166.40 206.90 Z M 62.50 203.90 L 166.40 203.90 L 169.40 203.60 L 174.90 202.20 L 177.40 200.90 L 180.40 198.70 L 183.00 196.10 L 185.20 193.10 L 187.40 187.90 L 188.00 185.10 L 188.20 182.10 L 188.40 80.00 L 190.00 70.60 L 192.70 62.90 L 194.40 59.70 L 196.30 57.10 L 198.30 55.00 L 200.50 53.30 L 97.20 53.20 L 93.90 53.50 L 89.10 54.70 L 86.50 55.80 L 83.80 57.50 L 81.30 59.60 L 79.30 62.20 L 77.50 65.10 L 76.10 68.50 L 75.00 72.50 L 74.30 77.20 L 74.00 82.50 L 74.00 182.10 L 73.80 186.20 L 73.20 189.70 L 72.30 192.60 L 69.60 197.70 L 68.00 199.60 L 65.30 202.10 L 62.50 203.90 Z" fill="#6e6e96" fill-rule="nonzero" group-id="3" node-id="457" stroke="none" target-height="156.7" target-width="161.6" target-x="50.2" target-y="50.2"></path></g></svg>